<svg width="57" height="10" viewBox="0 0 57 10" fill="none" xmlns="http://www.w3.org/2000/svg">
<path d="M3.54492 5.82422L2.70117 6.75V9H0.644531V0.46875H2.70117V4.23047L3.41602 3.14648L5.25586 0.46875H7.79883L4.91602 4.24219L7.79883 9H5.36133L3.54492 5.82422ZM10.5117 9H8.46094V0.46875H10.5117V9ZM14.1328 9H12.082V0.46875H14.1328V9ZM22.084 2.05664H19.5234V9H17.4668V2.05664H14.9531V0.46875H22.084V2.05664ZM30.9668 5.60156H27.6504V9H25.5938V0.46875H31.3008V2.05664H27.6504V4.01953H30.9668V5.60156ZM37.4473 5.38477H34.2129V7.41797H38.0332V9H32.1562V0.46875H38.0449V2.05664H34.2129V3.85547H37.4473V5.38477ZM43.2715 6.73242C43.2715 6.43164 43.1641 6.19727 42.9492 6.0293C42.7383 5.86133 42.3652 5.6875 41.8301 5.50781C41.2949 5.32812 40.8574 5.1543 40.5176 4.98633C39.4121 4.44336 38.8594 3.69727 38.8594 2.74805C38.8594 2.27539 38.9961 1.85937 39.2695 1.5C39.5469 1.13672 39.9375 0.855469 40.4414 0.65625C40.9453 0.453125 41.5117 0.351562 42.1406 0.351562C42.7539 0.351562 43.3027 0.460938 43.7871 0.679688C44.2754 0.898437 44.6543 1.21094 44.9238 1.61719C45.1934 2.01953 45.3281 2.48047 45.3281 3H43.2773C43.2773 2.65234 43.1699 2.38281 42.9551 2.19141C42.7441 2 42.457 1.9043 42.0938 1.9043C41.7266 1.9043 41.4355 1.98633 41.2207 2.15039C41.0098 2.31055 40.9043 2.51562 40.9043 2.76562C40.9043 2.98438 41.0215 3.18359 41.2559 3.36328C41.4902 3.53906 41.9023 3.72266 42.4922 3.91406C43.082 4.10156 43.5664 4.30469 43.9453 4.52344C44.8672 5.05469 45.3281 5.78711 45.3281 6.7207C45.3281 7.4668 45.0469 8.05273 44.4844 8.47852C43.9219 8.9043 43.1504 9.11719 42.1699 9.11719C41.4785 9.11719 40.8516 8.99414 40.2891 8.74805C39.7305 8.49805 39.3086 8.1582 39.0234 7.72852C38.7422 7.29492 38.6016 6.79688 38.6016 6.23438H40.6641C40.6641 6.69141 40.7812 7.0293 41.0156 7.24805C41.2539 7.46289 41.6387 7.57031 42.1699 7.57031C42.5098 7.57031 42.7773 7.49805 42.9727 7.35352C43.1719 7.20508 43.2715 6.99805 43.2715 6.73242ZM53.0801 2.05664H50.5195V9H48.4629V2.05664H45.9492V0.46875H53.0801V2.05664Z" fill="#0C2549" fill-opacity="0.91"/>
<path d="M55.084 7.08398C55.3965 7.08398 55.6562 7.17773 55.8633 7.36523C56.0703 7.54883 56.1738 7.78516 56.1738 8.07422C56.1738 8.36328 56.0703 8.60156 55.8633 8.78906C55.6562 8.97266 55.3965 9.06445 55.084 9.06445C54.7676 9.06445 54.5059 8.9707 54.2988 8.7832C54.0957 8.5957 53.9941 8.35938 53.9941 8.07422C53.9941 7.78906 54.0957 7.55273 54.2988 7.36523C54.5059 7.17773 54.7676 7.08398 55.084 7.08398Z" fill="#47B2C0" fill-opacity="0.81"/>
</svg>
